<svg id="Layer_1" data-name="Layer 1" xmlns="http://www.w3.org/2000/svg" viewBox="0 0 361.73 36.32"><defs><style>.cls-1{fill:#afdbbb;}</style></defs><title>logo-dk</title><path class="cls-1" d="M125.94,368.77v-.86c2.87,0,3.27-.4,3.27-3.17V338.58c0-2.76-.4-3.17-3.27-3.17v-.85H138c9.76,0,15.2,6.13,15.2,17.1,0,10.82-5.59,17.11-15.1,17.11Zm20.73-17.06c0-10.46-3.42-16.3-9.61-16.3H135.4v28.48c0,2.92.9,4,3.47,4C143.7,367.91,146.67,361.72,146.67,351.71Z" transform="translate(-125.94 -333.15)"/><path class="cls-1" d="M195.26,351.51c0-11,5.38-17.66,14.14-17.66,4.78,0,7,2.07,8,2.07.6,0,.95-.41,1.46-1.61h.6v10.91h-.81c-1.66-6.94-4-10.46-8.6-10.46-5.13,0-7.8,5.89-7.8,16.75s3,17.06,8.2,17.06c4.68,0,7.05-3.68,9-11.78h.8l-.35,9.51a17.4,17.4,0,0,1-10,3.17C200.85,369.47,195.26,362.58,195.26,351.51Z" transform="translate(-125.94 -333.15)"/><path class="cls-1" d="M226.71,344.22c3.62,0,5.88-2.37,5.63-6.34a3.91,3.91,0,0,1-3,1.36,2.84,2.84,0,0,1-3.07-2.92,3.12,3.12,0,0,1,3.37-3.17c2.47,0,3.88,1.91,3.88,5,0,4.33-2.37,7-6.79,7Z" transform="translate(-125.94 -333.15)"/><path class="cls-1" d="M240.34,367.41c-.65,0-1.21.55-1.71,1.61H238V356.79h.8c1.56,7.1,5.13,11.83,9.66,11.83,3.17,0,5.38-2,5.38-5.14,0-2.91-1.15-4.52-4.12-6.59l-6-4.12C240,350.15,238,347,238,342.66c0-5.49,3.72-8.81,10-8.81,4.88,0,7.09,2.07,8,2.07.55,0,.9-.41,1.56-1.61h.6v10.91h-.8c-1.67-7-5.14-10.51-9.26-10.51a5,5,0,0,0-5.33,5.28c0,2.92,1.46,4.63,4.37,6.59l5.39,3.62c4.12,2.72,6.08,5.89,6.08,10.27,0,5.63-3.77,9-10.16,9C243.31,369.47,241.35,367.41,240.34,367.41Z" transform="translate(-125.94 -333.15)"/><path class="cls-1" d="M303.68,335.41c-1.15,0-2.61.56-5.58,4l-7.2,8.35,10.52,17.51c1.16,2,1.66,2.61,2.26,2.61v.86H292.41v-.86c1.41,0,2.17-.15,2.17-1a7,7,0,0,0-1-2.67l-6.64-11.82-1.71,2V365c0,2.42.35,2.87,3.07,2.87v.86H275.91v-.86c2.87,0,3.27-.4,3.27-3.17V338.58c0-2.76-.4-3.17-3.27-3.17v-.85h12.63v.85c-3,0-3.32.15-3.32,2.67v14.84l10.41-12C297,339.24,298,338,298,337.12c0-1.1-1.31-1.71-4.58-1.71v-.85h10.31Z" transform="translate(-125.94 -333.15)"/><path class="cls-1" d="M308.31,368.77v-.86c2.87,0,3.27-.4,3.27-3.17V338.58c0-2.76-.4-3.17-3.27-3.17v-.85h12.58v.85c-2.87,0-3.27.41-3.27,3.17v26.16c0,2.77.4,3.17,3.27,3.17v.86Z" transform="translate(-125.94 -333.15)"/><path class="cls-1" d="M340.86,334.56h10v.85c-2.32,0-3.43.86-3.43,4v29.38h-3.16L329.19,343v20.78c0,3.57,1.21,4.17,5.34,4.17v.86H323.81v-.86c3.47,0,4.38-.55,4.38-4.17V341.25L326.28,338c-1.16-2.06-1.67-2.57-2.47-2.57v-.85h7.55l15,26.11V339.44c0-3.32-1.46-4-5.54-4Z" transform="translate(-125.94 -333.15)"/><path class="cls-1" d="M353.9,352c0-10.86,5.73-18.16,14.64-18.16,5.23,0,7.59,2.07,8.35,2.07s1.11-.51,1.56-1.61H379v10.91h-.75c-1.61-6.89-4.28-10.51-9-10.51-5.43,0-8.2,6.24-8.2,17,0,10.52,2.77,17,7.3,17,2.51,0,4.52-1.51,4.52-5.24v-6.84c0-2.71-.65-3.22-4.83-3.22v-.85h13.29v.85c-1.87,0-2.27.61-2.27,3.37v8.86a15.15,15.15,0,0,1-10.71,3.92C359.23,369.47,353.9,362.48,353.9,352Z" transform="translate(-125.94 -333.15)"/><path class="cls-1" d="M383.83,368.77v-.86c2.87,0,3.27-.4,3.27-3.17V338.58c0-2.76-.4-3.17-3.27-3.17v-.85h12.08c9.76,0,15.19,6.13,15.19,17.1,0,10.82-5.58,17.11-15.09,17.11Zm20.73-17.06c0-10.46-3.42-16.3-9.61-16.3h-1.66v28.48c0,2.92.91,4,3.47,4C401.59,367.91,404.56,361.72,404.56,351.71Z" transform="translate(-125.94 -333.15)"/><path class="cls-1" d="M483.8,363.23c.3,3.93.95,4.68,3.87,4.68v.86H474.14v-.86c3.37,0,4.22-.8,4-4l-1.86-25.51-8.2,30.44h-3.17l-8.6-30.44-1.81,24.4c-.3,4.23.55,5.13,4.88,5.13v.86h-9.81v-.86c2.87,0,3.62-1.06,3.92-5.33l1.71-23.65c.2-2.66-.55-3.52-3-3.52v-.85h9.11l7.5,27.82,7.44-27.82h9v.85c-2.77,0-3.32.66-3.12,3.78Z" transform="translate(-125.94 -333.15)"/><circle class="cls-1" cx="306.89" cy="18.53" r="17.01"/><path class="cls-1" d="M174.33,334.5a17,17,0,1,0,17,17A17,17,0,0,0,174.33,334.5Zm0,32.1a15.1,15.1,0,1,1,15.1-15.09A15.09,15.09,0,0,1,174.33,366.6Z" transform="translate(-125.94 -333.15)"/></svg>