<svg width="54" height="54" viewBox="0 0 54 54" fill="none" xmlns="http://www.w3.org/2000/svg">
<path d="M54 51.1757L38.916 36.0917C42.5408 31.7401 44.3483 26.1585 43.9626 20.5082C43.5769 14.8578 41.0277 9.57362 36.8452 5.75493C32.6627 1.93624 27.169 -0.122968 21.5069 0.00568482C15.8449 0.134338 10.4504 2.44094 6.44566 6.44566C2.44094 10.4504 0.134338 15.8449 0.00568482 21.5069C-0.122968 27.169 1.93624 32.6627 5.75493 36.8452C9.57362 41.0277 14.8578 43.5769 20.5082 43.9626C26.1585 44.3483 31.7401 42.5408 36.0917 38.916L51.1757 54L54 51.1757ZM4.06613 22.0423C4.06613 18.487 5.12042 15.0115 7.09567 12.0553C9.07092 9.09912 11.8784 6.79507 15.1631 5.43449C18.4479 4.07392 22.0623 3.71793 25.5493 4.41154C29.0363 5.10516 32.2394 6.81722 34.7534 9.33124C37.2674 11.8453 38.9795 15.0483 39.6731 18.5353C40.3667 22.0224 40.0107 25.6368 38.6502 28.9215C37.2896 32.2062 34.9855 35.0137 32.0294 36.989C29.0732 38.9642 25.5977 40.0185 22.0423 40.0185C17.2764 40.0132 12.7071 38.1176 9.33708 34.7476C5.96703 31.3775 4.07142 26.8083 4.06613 22.0423V22.0423Z" fill="#A5F7C6"/>
</svg>
